<mxfile host="app.diagrams.net" modified="2021-01-10T02:36:16.578Z" agent="5.0 (Windows NT 10.0; Win64; x64) AppleWebKit/537.36 (KHTML, like Gecko) Chrome/87.0.4280.141 Safari/537.36" etag="Q8ODSoDfle_coJ3AVM37" version="14.1.9" type="github">
  <diagram id="prtHgNgQTEPvFCAcTncT" name="Page-1">
    <mxGraphModel dx="1221" dy="578" grid="1" gridSize="10" guides="1" tooltips="1" connect="1" arrows="1" fold="1" page="1" pageScale="1" pageWidth="827" pageHeight="1169" math="0" shadow="0">
      <root>
        <mxCell id="0" />
        <mxCell id="1" parent="0" />
        <mxCell id="_-7YK1nfO6ypHrNXwtOh-2" value="&lt;blockquote style=&quot;margin: 0 0 0 40px ; border: none ; padding: 0px&quot;&gt;社团管理系统&lt;/blockquote&gt;&lt;blockquote style=&quot;margin: 0 0 0 40px ; border: none ; padding: 0px&quot;&gt;&lt;br&gt;&lt;/blockquote&gt;&lt;blockquote style=&quot;margin: 0 0 0 40px ; border: none ; padding: 0px&quot;&gt;&lt;br&gt;&lt;/blockquote&gt;&lt;blockquote style=&quot;margin: 0 0 0 40px ; border: none ; padding: 0px&quot;&gt;&lt;br&gt;&lt;/blockquote&gt;&lt;blockquote style=&quot;margin: 0 0 0 40px ; border: none ; padding: 0px&quot;&gt;&lt;br&gt;&lt;/blockquote&gt;&lt;blockquote style=&quot;margin: 0 0 0 40px ; border: none ; padding: 0px&quot;&gt;&lt;br&gt;&lt;/blockquote&gt;&lt;blockquote style=&quot;margin: 0 0 0 40px ; border: none ; padding: 0px&quot;&gt;&lt;br&gt;&lt;/blockquote&gt;&lt;blockquote style=&quot;margin: 0 0 0 40px ; border: none ; padding: 0px&quot;&gt;&lt;br&gt;&lt;/blockquote&gt;&lt;blockquote style=&quot;margin: 0 0 0 40px ; border: none ; padding: 0px&quot;&gt;&lt;br&gt;&lt;/blockquote&gt;&lt;blockquote style=&quot;margin: 0 0 0 40px ; border: none ; padding: 0px&quot;&gt;&lt;br&gt;&lt;/blockquote&gt;&lt;blockquote style=&quot;margin: 0 0 0 40px ; border: none ; padding: 0px&quot;&gt;&lt;br&gt;&lt;/blockquote&gt;&lt;blockquote style=&quot;margin: 0 0 0 40px ; border: none ; padding: 0px&quot;&gt;&lt;br&gt;&lt;/blockquote&gt;&lt;blockquote style=&quot;margin: 0 0 0 40px ; border: none ; padding: 0px&quot;&gt;&lt;br&gt;&lt;/blockquote&gt;&lt;blockquote style=&quot;margin: 0 0 0 40px ; border: none ; padding: 0px&quot;&gt;&lt;br&gt;&lt;/blockquote&gt;&lt;blockquote style=&quot;margin: 0 0 0 40px ; border: none ; padding: 0px&quot;&gt;&lt;br&gt;&lt;/blockquote&gt;&lt;blockquote style=&quot;margin: 0 0 0 40px ; border: none ; padding: 0px&quot;&gt;&lt;br&gt;&lt;/blockquote&gt;&lt;blockquote style=&quot;margin: 0 0 0 40px ; border: none ; padding: 0px&quot;&gt;&lt;br&gt;&lt;/blockquote&gt;&lt;blockquote style=&quot;margin: 0 0 0 40px ; border: none ; padding: 0px&quot;&gt;&lt;br&gt;&lt;/blockquote&gt;&lt;blockquote style=&quot;margin: 0 0 0 40px ; border: none ; padding: 0px&quot;&gt;&lt;br&gt;&lt;/blockquote&gt;&lt;blockquote style=&quot;margin: 0 0 0 40px ; border: none ; padding: 0px&quot;&gt;&lt;br&gt;&lt;/blockquote&gt;&lt;blockquote style=&quot;margin: 0 0 0 40px ; border: none ; padding: 0px&quot;&gt;&lt;br&gt;&lt;/blockquote&gt;&lt;blockquote style=&quot;margin: 0 0 0 40px ; border: none ; padding: 0px&quot;&gt;&lt;br&gt;&lt;/blockquote&gt;&lt;blockquote style=&quot;margin: 0 0 0 40px ; border: none ; padding: 0px&quot;&gt;&lt;br&gt;&lt;/blockquote&gt;&lt;blockquote style=&quot;margin: 0 0 0 40px ; border: none ; padding: 0px&quot;&gt;&lt;br&gt;&lt;/blockquote&gt;&lt;blockquote style=&quot;margin: 0 0 0 40px ; border: none ; padding: 0px&quot;&gt;&lt;br&gt;&lt;/blockquote&gt;&lt;blockquote style=&quot;margin: 0 0 0 40px ; border: none ; padding: 0px&quot;&gt;&lt;br&gt;&lt;/blockquote&gt;&lt;blockquote style=&quot;margin: 0 0 0 40px ; border: none ; padding: 0px&quot;&gt;&lt;br&gt;&lt;/blockquote&gt;&lt;blockquote style=&quot;margin: 0 0 0 40px ; border: none ; padding: 0px&quot;&gt;&lt;br&gt;&lt;/blockquote&gt;&lt;blockquote style=&quot;margin: 0 0 0 40px ; border: none ; padding: 0px&quot;&gt;&lt;br&gt;&lt;/blockquote&gt;" style="rounded=0;whiteSpace=wrap;html=1;align=right;" vertex="1" parent="1">
          <mxGeometry x="340" y="370" width="280" height="430" as="geometry" />
        </mxCell>
        <mxCell id="_-7YK1nfO6ypHrNXwtOh-17" style="edgeStyle=none;rounded=0;orthogonalLoop=1;jettySize=auto;html=1;exitX=0.75;exitY=0.1;exitDx=0;exitDy=0;exitPerimeter=0;entryX=0;entryY=0.5;entryDx=0;entryDy=0;" edge="1" parent="1" source="_-7YK1nfO6ypHrNXwtOh-3" target="_-7YK1nfO6ypHrNXwtOh-6">
          <mxGeometry relative="1" as="geometry" />
        </mxCell>
        <mxCell id="_-7YK1nfO6ypHrNXwtOh-18" style="edgeStyle=none;rounded=0;orthogonalLoop=1;jettySize=auto;html=1;exitX=0.75;exitY=0.1;exitDx=0;exitDy=0;exitPerimeter=0;entryX=0;entryY=0.5;entryDx=0;entryDy=0;" edge="1" parent="1" source="_-7YK1nfO6ypHrNXwtOh-3" target="_-7YK1nfO6ypHrNXwtOh-7">
          <mxGeometry relative="1" as="geometry" />
        </mxCell>
        <mxCell id="_-7YK1nfO6ypHrNXwtOh-19" style="edgeStyle=none;rounded=0;orthogonalLoop=1;jettySize=auto;html=1;exitX=0.75;exitY=0.1;exitDx=0;exitDy=0;exitPerimeter=0;entryX=0;entryY=0.5;entryDx=0;entryDy=0;" edge="1" parent="1" source="_-7YK1nfO6ypHrNXwtOh-3" target="_-7YK1nfO6ypHrNXwtOh-9">
          <mxGeometry relative="1" as="geometry" />
        </mxCell>
        <mxCell id="_-7YK1nfO6ypHrNXwtOh-20" style="edgeStyle=none;rounded=0;orthogonalLoop=1;jettySize=auto;html=1;exitX=0;exitY=0.5;exitDx=0;exitDy=0;entryX=1;entryY=1;entryDx=0;entryDy=0;entryPerimeter=0;" edge="1" parent="1" source="_-7YK1nfO6ypHrNXwtOh-8" target="_-7YK1nfO6ypHrNXwtOh-3">
          <mxGeometry relative="1" as="geometry">
            <mxPoint x="150" y="570" as="targetPoint" />
          </mxGeometry>
        </mxCell>
        <mxCell id="_-7YK1nfO6ypHrNXwtOh-21" style="edgeStyle=none;rounded=0;orthogonalLoop=1;jettySize=auto;html=1;exitX=0.75;exitY=0.1;exitDx=0;exitDy=0;exitPerimeter=0;entryX=0;entryY=0;entryDx=0;entryDy=0;" edge="1" parent="1" source="_-7YK1nfO6ypHrNXwtOh-3" target="_-7YK1nfO6ypHrNXwtOh-10">
          <mxGeometry relative="1" as="geometry" />
        </mxCell>
        <mxCell id="_-7YK1nfO6ypHrNXwtOh-22" style="edgeStyle=none;rounded=0;orthogonalLoop=1;jettySize=auto;html=1;exitX=0.75;exitY=0.1;exitDx=0;exitDy=0;exitPerimeter=0;entryX=0;entryY=0;entryDx=0;entryDy=0;" edge="1" parent="1" source="_-7YK1nfO6ypHrNXwtOh-3" target="_-7YK1nfO6ypHrNXwtOh-12">
          <mxGeometry relative="1" as="geometry" />
        </mxCell>
        <mxCell id="_-7YK1nfO6ypHrNXwtOh-23" style="edgeStyle=none;rounded=0;orthogonalLoop=1;jettySize=auto;html=1;exitX=1;exitY=0.3333333333333333;exitDx=0;exitDy=0;exitPerimeter=0;entryX=0;entryY=0;entryDx=0;entryDy=0;" edge="1" parent="1" source="_-7YK1nfO6ypHrNXwtOh-3" target="_-7YK1nfO6ypHrNXwtOh-15">
          <mxGeometry relative="1" as="geometry" />
        </mxCell>
        <mxCell id="_-7YK1nfO6ypHrNXwtOh-3" value="普通用户" style="shape=umlActor;verticalLabelPosition=bottom;verticalAlign=top;html=1;outlineConnect=0;" vertex="1" parent="1">
          <mxGeometry x="180" y="390" width="30" height="60" as="geometry" />
        </mxCell>
        <mxCell id="_-7YK1nfO6ypHrNXwtOh-24" style="edgeStyle=none;rounded=0;orthogonalLoop=1;jettySize=auto;html=1;exitX=0.25;exitY=0.1;exitDx=0;exitDy=0;exitPerimeter=0;entryX=1;entryY=0.5;entryDx=0;entryDy=0;" edge="1" parent="1" source="_-7YK1nfO6ypHrNXwtOh-4" target="_-7YK1nfO6ypHrNXwtOh-6">
          <mxGeometry relative="1" as="geometry" />
        </mxCell>
        <mxCell id="_-7YK1nfO6ypHrNXwtOh-25" style="edgeStyle=none;rounded=0;orthogonalLoop=1;jettySize=auto;html=1;exitX=0.25;exitY=0.1;exitDx=0;exitDy=0;exitPerimeter=0;entryX=1;entryY=0.5;entryDx=0;entryDy=0;" edge="1" parent="1" source="_-7YK1nfO6ypHrNXwtOh-4" target="_-7YK1nfO6ypHrNXwtOh-7">
          <mxGeometry relative="1" as="geometry" />
        </mxCell>
        <mxCell id="_-7YK1nfO6ypHrNXwtOh-26" style="edgeStyle=none;rounded=0;orthogonalLoop=1;jettySize=auto;html=1;exitX=0.25;exitY=0.1;exitDx=0;exitDy=0;exitPerimeter=0;" edge="1" parent="1" source="_-7YK1nfO6ypHrNXwtOh-4" target="_-7YK1nfO6ypHrNXwtOh-9">
          <mxGeometry relative="1" as="geometry">
            <mxPoint x="720" y="440" as="sourcePoint" />
          </mxGeometry>
        </mxCell>
        <mxCell id="_-7YK1nfO6ypHrNXwtOh-27" style="edgeStyle=none;rounded=0;orthogonalLoop=1;jettySize=auto;html=1;exitX=1;exitY=0.5;exitDx=0;exitDy=0;entryX=0;entryY=1;entryDx=0;entryDy=0;entryPerimeter=0;" edge="1" parent="1" source="_-7YK1nfO6ypHrNXwtOh-8" target="_-7YK1nfO6ypHrNXwtOh-4">
          <mxGeometry relative="1" as="geometry">
            <mxPoint x="700" y="620" as="targetPoint" />
          </mxGeometry>
        </mxCell>
        <mxCell id="_-7YK1nfO6ypHrNXwtOh-28" style="edgeStyle=none;rounded=0;orthogonalLoop=1;jettySize=auto;html=1;exitX=0.25;exitY=0.1;exitDx=0;exitDy=0;exitPerimeter=0;entryX=0.949;entryY=0.33;entryDx=0;entryDy=0;entryPerimeter=0;" edge="1" parent="1" source="_-7YK1nfO6ypHrNXwtOh-4" target="_-7YK1nfO6ypHrNXwtOh-13">
          <mxGeometry relative="1" as="geometry" />
        </mxCell>
        <mxCell id="_-7YK1nfO6ypHrNXwtOh-29" style="edgeStyle=none;rounded=0;orthogonalLoop=1;jettySize=auto;html=1;exitX=0.25;exitY=0.1;exitDx=0;exitDy=0;exitPerimeter=0;entryX=1;entryY=0.5;entryDx=0;entryDy=0;" edge="1" parent="1" source="_-7YK1nfO6ypHrNXwtOh-4" target="_-7YK1nfO6ypHrNXwtOh-14">
          <mxGeometry relative="1" as="geometry" />
        </mxCell>
        <mxCell id="_-7YK1nfO6ypHrNXwtOh-30" style="edgeStyle=none;rounded=0;orthogonalLoop=1;jettySize=auto;html=1;exitX=0.25;exitY=0.1;exitDx=0;exitDy=0;exitPerimeter=0;entryX=1;entryY=0.5;entryDx=0;entryDy=0;" edge="1" parent="1" source="_-7YK1nfO6ypHrNXwtOh-4" target="_-7YK1nfO6ypHrNXwtOh-16">
          <mxGeometry relative="1" as="geometry" />
        </mxCell>
        <mxCell id="_-7YK1nfO6ypHrNXwtOh-4" value="社团管理员" style="shape=umlActor;verticalLabelPosition=bottom;verticalAlign=top;html=1;outlineConnect=0;" vertex="1" parent="1">
          <mxGeometry x="730" y="390" width="30" height="60" as="geometry" />
        </mxCell>
        <mxCell id="_-7YK1nfO6ypHrNXwtOh-6" value="注册" style="ellipse;whiteSpace=wrap;html=1;" vertex="1" parent="1">
          <mxGeometry x="414" y="380" width="70" height="40" as="geometry" />
        </mxCell>
        <mxCell id="_-7YK1nfO6ypHrNXwtOh-7" value="登录" style="ellipse;whiteSpace=wrap;html=1;" vertex="1" parent="1">
          <mxGeometry x="414" y="430" width="70" height="40" as="geometry" />
        </mxCell>
        <mxCell id="_-7YK1nfO6ypHrNXwtOh-8" value="系统通知" style="ellipse;whiteSpace=wrap;html=1;" vertex="1" parent="1">
          <mxGeometry x="414" y="530" width="70" height="40" as="geometry" />
        </mxCell>
        <mxCell id="_-7YK1nfO6ypHrNXwtOh-9" value="修改个人信息" style="ellipse;whiteSpace=wrap;html=1;" vertex="1" parent="1">
          <mxGeometry x="414" y="480" width="70" height="40" as="geometry" />
        </mxCell>
        <mxCell id="_-7YK1nfO6ypHrNXwtOh-10" value="申请加入社团" style="ellipse;whiteSpace=wrap;html=1;" vertex="1" parent="1">
          <mxGeometry x="414" y="585" width="70" height="40" as="geometry" />
        </mxCell>
        <mxCell id="_-7YK1nfO6ypHrNXwtOh-12" value="申请参加社团活动" style="ellipse;whiteSpace=wrap;html=1;" vertex="1" parent="1">
          <mxGeometry x="414" y="640" width="70" height="40" as="geometry" />
        </mxCell>
        <mxCell id="_-7YK1nfO6ypHrNXwtOh-13" value="添加成员" style="ellipse;whiteSpace=wrap;html=1;" vertex="1" parent="1">
          <mxGeometry x="510" y="585" width="70" height="40" as="geometry" />
        </mxCell>
        <mxCell id="_-7YK1nfO6ypHrNXwtOh-14" value="删除成员" style="ellipse;whiteSpace=wrap;html=1;" vertex="1" parent="1">
          <mxGeometry x="510" y="640" width="70" height="40" as="geometry" />
        </mxCell>
        <mxCell id="_-7YK1nfO6ypHrNXwtOh-15" value="查询社团信息" style="ellipse;whiteSpace=wrap;html=1;" vertex="1" parent="1">
          <mxGeometry x="414" y="700" width="70" height="40" as="geometry" />
        </mxCell>
        <mxCell id="_-7YK1nfO6ypHrNXwtOh-16" value="发起社团活动" style="ellipse;whiteSpace=wrap;html=1;" vertex="1" parent="1">
          <mxGeometry x="510" y="700" width="70" height="40" as="geometry" />
        </mxCell>
      </root>
    </mxGraphModel>
  </diagram>
</mxfile>
